<?xml version="1.0" encoding="UTF-8" standalone="no"?><!DOCTYPE svg PUBLIC "-//W3C//DTD SVG 1.1//EN" "http://www.w3.org/Graphics/SVG/1.1/DTD/svg11.dtd"><svg width="100%" height="100%" viewBox="0 0 48 48" version="1.1" xmlns="http://www.w3.org/2000/svg" xmlns:xlink="http://www.w3.org/1999/xlink" xml:space="preserve" xmlns:serif="http://www.serif.com/" style="fill-rule:evenodd;clip-rule:evenodd;stroke-linecap:round;stroke-linejoin:round;stroke-miterlimit:1.5;"><rect id="logo" x="0.198" y="0.121" width="47.494" height="47.494" style="fill:none;"/><path id="head" d="M3.287,27.296l3.546,-5.814l5.712,-12.183l11.041,-3.475l7.175,-3.822l-1.427,5.004l0.622,3.231l4.961,3.059l5.118,8.7l4.567,4.404l-2.325,6.574l-5.049,0.195l-2.903,-2.699l-6.053,-0.846l-6.858,-3.161l0.964,-3.116l-0.964,3.116l-1.839,4.774l-3.06,10.125" style="fill:none;stroke:#d64550;stroke-width:2px;"/><path id="shadow" d="M3.287,31.667l3.546,-5.814l5.712,-12.183l11.041,-3.475l7.175,-3.822l-1.427,5.004l0.622,3.231l4.961,3.06l5.118,8.7l4.567,4.403l-2.325,6.574l-5.049,0.195l-2.903,-2.699l-6.053,-0.846l-6.858,-3.161l0.964,-3.116l-0.964,3.116l-1.839,4.774l-3.06,10.125" style="fill:none;stroke:#d64550;stroke-opacity:0.75;stroke-width:2px;"/></svg>
